<?xml version="1.0" encoding="UTF-8" standalone="no"?>
<!DOCTYPE svg PUBLIC "-//W3C//DTD SVG 1.1//EN" "http://www.w3.org/Graphics/SVG/1.1/DTD/svg11.dtd">
<svg width="100%" height="100%" viewBox="0 0 311 229" version="1.1" xmlns="http://www.w3.org/2000/svg" xmlns:xlink="http://www.w3.org/1999/xlink" xml:space="preserve" xmlns:serif="http://www.serif.com/" style="fill-rule:evenodd;clip-rule:evenodd;stroke-linejoin:round;stroke-miterlimit:2;">
    <g transform="matrix(1,0,0,1,-92.0956,-131.26)">
        <g transform="matrix(1,0,0,1,0,-115.538)">
            <path d="M305.172,254.264C300.253,261.047 303.497,269.401 312.417,272.924C321.334,276.438 332.549,273.793 337.458,267.011C338.226,265.956 338.796,264.867 339.171,263.762L349.199,258.113L338.295,254.933C336.739,252.2 333.983,249.852 330.217,248.359C327.537,247.301 324.65,246.798 321.79,246.798C315.128,246.8 308.61,249.519 305.172,254.264ZM316.77,259.578C314.981,258.257 314.766,255.947 316.301,254.413C317.827,252.864 320.522,252.687 322.306,254.008C324.094,255.319 324.31,257.639 322.78,259.172C321.936,260.021 320.74,260.455 319.537,260.455C318.557,260.454 317.572,260.166 316.77,259.578ZM287.485,275.88L287.479,275.88L287.479,275.886L287.469,275.898L266.344,297.126L263.766,299.72L244.258,319.318L231.674,331.959L231.683,331.959C240.584,332.563 249.818,331.322 258.733,328.458C270.856,324.577 282.372,317.701 291.605,308.422C299.478,300.515 302.781,293.899 302.781,287.889C302.781,281.561 299.109,275.898 293.25,270.092L287.485,275.88ZM310.216,285.202C311.305,293.979 307.127,302.979 297.439,312.717C289.24,320.94 279.391,327.436 268.831,331.876C264.095,333.87 259.222,335.446 254.292,336.58C248.232,337.97 242.078,338.699 236.018,338.699C232.545,338.699 229.089,338.458 225.701,337.97L225.561,338.11C232.227,342.572 240.246,345.283 249.06,346.148C252.266,346.455 255.58,346.523 258.98,346.337C261.51,346.207 264.084,345.928 266.688,345.515C266.699,345.506 266.71,345.506 266.721,345.506C283.415,342.828 299.171,334.751 311.101,322.773C328.138,305.642 324.106,294.421 309.383,281.343C309.781,282.63 310.055,283.909 310.216,285.202ZM198.657,365.133C203.207,367.568 208.513,368.697 213.953,368.336C220.7,367.881 226.817,365.202 231.205,360.795L240.461,351.497C233.151,349.909 226.421,347.096 220.565,343.116L198.657,365.133ZM268.122,351.99C265.791,352.367 263.476,352.646 261.188,352.819L266.235,368.74L274.672,368.74L268.858,351.866C268.618,351.91 268.369,351.954 268.122,351.99Z" style="fill:white;fill-rule:nonzero;"/>
        </g>
        <g transform="matrix(1,0,0,1,0,10.667)">
            <path d="M306.87,247.024L148.167,247.024L148.167,242.309L390.32,242.309L390.32,247.024L336.517,247.024" style="fill:white;fill-rule:nonzero;"/>
        </g>
        <g transform="matrix(1,0,0,1,0,125.694)">
            <path d="M147.863,141.541L162.198,141.541L162.198,178.682L177.576,178.682L177.576,141.541L191.912,141.541L191.912,232.765L177.576,232.765L177.576,191.714L162.198,191.714L162.198,232.765L147.863,232.765L147.863,141.541Z" style="fill:white;fill-rule:nonzero;"/>
        </g>
        <g transform="matrix(1,0,0,1,0,125.694)">
            <path d="M229.317,202.53L222.931,157.439L222.671,157.439L216.416,202.53L229.317,202.53ZM213.678,141.541L233.097,141.541L247.952,232.765L233.617,232.765L231.011,214.65L231.011,214.912L214.722,214.912L212.114,232.765L198.822,232.765L213.678,141.541Z" style="fill:white;fill-rule:nonzero;"/>
        </g>
        <g transform="matrix(1,0,0,1,0,125.694)">
            <path d="M253.558,211.132L253.558,163.174C253.558,148.578 260.856,140.238 274.93,140.238C289.005,140.238 296.303,148.578 296.303,163.174L296.303,170.994L282.75,170.994L282.75,162.261C282.75,155.746 279.881,153.27 275.322,153.27C270.76,153.27 267.894,155.746 267.894,162.261L267.894,212.174C267.894,218.691 270.76,221.036 275.322,221.036C279.881,221.036 282.75,218.691 282.75,212.174L282.75,194.321L275.582,194.321L275.582,181.288L296.303,181.288L296.303,211.132C296.303,225.729 289.005,234.068 274.93,234.068C260.856,234.068 253.558,225.729 253.558,211.132" style="fill:white;fill-rule:nonzero;"/>
        </g>
        <g transform="matrix(1,0,0,1,0,126.997)">
            <path d="M305.036,209.829L305.036,140.238L319.371,140.238L319.371,210.871C319.371,217.388 322.108,219.733 326.669,219.733C331.23,219.733 333.967,217.388 333.967,210.871L333.967,140.238L347.78,140.238L347.78,209.829C347.78,224.426 340.483,232.765 326.408,232.765C312.333,232.765 305.036,224.426 305.036,209.829" style="fill:white;fill-rule:nonzero;"/>
        </g>
        <g transform="matrix(1,0,0,1,0,125.694)">
            <path d="M384.402,202.53L378.016,157.439L377.757,157.439L371.501,202.53L384.402,202.53ZM368.764,141.541L388.182,141.541L403.038,232.765L388.702,232.765L386.096,214.65L386.096,214.912L369.807,214.912L367.2,232.765L353.908,232.765L368.764,141.541Z" style="fill:white;fill-rule:nonzero;"/>
        </g>
        <g transform="matrix(1,0,0,1,0,109.649)">
            <path d="M107.279,153.33L92.096,153.33L92.096,141.561L136.984,141.561L136.984,153.33L121.802,153.33L121.802,248.79L107.279,248.79L107.279,153.33Z" style="fill:white;fill-rule:nonzero;"/>
        </g>
    </g>
</svg>
