<?xml version="1.0" encoding="utf-8"?>
<!-- Generator: Adobe Illustrator 25.3.1, SVG Export Plug-In . SVG Version: 6.00 Build 0)  -->
<svg version="1.1" id="Layer_1" xmlns="http://www.w3.org/2000/svg" xmlns:xlink="http://www.w3.org/1999/xlink" x="0px" y="0px"
	 viewBox="0 0 320 320" style="enable-background:new 0 0 320 320;" xml:space="preserve">
<style type="text/css">
	.st0{fill:#838383;}
	.st1{fill:#FFFFFF;}
</style>
<rect x="-1" y="-1" class="st0" width="322" height="322"/>
<g>
	<g>
		<path class="st1" d="M49.26,236.25v-69.33H35.98v-10.8h38.04v10.8H60.74v69.33H49.26z"/>
		<path class="st1" d="M78.29,236.25v-80.13h11.48v28.59H90c1.2-1.8,2.64-3.28,4.33-4.45c1.69-1.16,3.84-1.74,6.47-1.74
			c1.42,0,2.85,0.24,4.28,0.73c1.42,0.49,2.7,1.29,3.83,2.42c1.12,1.12,2.03,2.57,2.7,4.33c0.68,1.76,1.01,3.92,1.01,6.47v43.78
			h-11.48v-39.5c0-2.1-0.49-3.75-1.46-4.95c-0.98-1.2-2.36-1.8-4.16-1.8c-2.18,0-3.68,0.68-4.5,2.03c-0.83,1.35-1.24,3.3-1.24,5.85
			v38.38H78.29z"/>
		<path class="st1" d="M143.68,236.25v-5.85h-0.23c-1.5,2.1-3.02,3.71-4.56,4.84c-1.54,1.13-3.7,1.69-6.47,1.69
			c-1.35,0-2.72-0.21-4.11-0.62c-1.39-0.41-2.72-1.18-4-2.31c-1.28-1.05-2.31-2.57-3.1-4.56c-0.79-1.99-1.18-4.56-1.18-7.71
			c0-3.22,0.26-6.06,0.79-8.5c0.52-2.44,1.5-4.48,2.93-6.13c1.35-1.58,3.19-2.76,5.51-3.54c2.32-0.79,5.29-1.18,8.89-1.18
			c0.37,0,0.79,0,1.24,0c0.45,0,0.86,0.04,1.24,0.11c0.37,0.08,0.82,0.11,1.35,0.11c0.52,0,1.09,0.04,1.69,0.11v-5.96
			c0-1.95-0.41-3.56-1.24-4.84c-0.83-1.28-2.33-1.91-4.5-1.91c-1.5,0-2.87,0.49-4.11,1.46c-1.24,0.98-2.04,2.4-2.42,4.28h-11.14
			c0.3-5.1,2.03-9.23,5.18-12.38c1.5-1.5,3.3-2.68,5.4-3.55c2.1-0.86,4.46-1.29,7.09-1.29c2.4,0,4.65,0.38,6.75,1.13
			c2.1,0.75,3.94,1.88,5.51,3.38c1.5,1.5,2.7,3.38,3.6,5.63c0.9,2.25,1.35,4.88,1.35,7.88v39.73H143.68z M143.68,211.72
			c-1.28-0.23-2.33-0.34-3.15-0.34c-2.48,0-4.6,0.58-6.36,1.74c-1.76,1.16-2.64,3.28-2.64,6.36c0,2.18,0.52,3.94,1.58,5.29
			c1.05,1.35,2.51,2.03,4.39,2.03c1.95,0,3.47-0.64,4.56-1.91c1.09-1.28,1.63-3.07,1.63-5.4V211.72z"/>
		<path class="st1" d="M174.97,242.89c0.07,1.35,0.62,2.62,1.63,3.83c1.01,1.2,2.49,1.8,4.45,1.8c1.87,0,3.23-0.58,4.05-1.74
			c0.82-1.16,1.24-2.64,1.24-4.45v-11.25h-0.22c-1.28,1.88-2.8,3.32-4.56,4.33c-1.76,1.01-3.81,1.52-6.13,1.52
			c-4.8,0-8.14-1.8-10.02-5.4c-0.68-1.28-1.16-2.85-1.46-4.73c-0.3-1.87-0.45-4.39-0.45-7.54v-21.72c0-4.13,0.11-7.16,0.34-9.12
			c0.45-3.75,2.21-6.56,5.29-8.44c1.42-0.98,3.56-1.46,6.41-1.46c1.42,0,2.64,0.15,3.66,0.45s1.93,0.71,2.76,1.24
			c0.82,0.53,1.58,1.14,2.25,1.86c0.68,0.71,1.39,1.48,2.14,2.31v-5.18h11.48v64.04c0,1.95-0.32,3.92-0.96,5.91
			c-0.64,1.99-1.67,3.77-3.1,5.35c-1.43,1.65-3.23,2.98-5.4,3.99c-2.18,1.01-4.76,1.52-7.77,1.52c-1.73,0-3.53-0.28-5.4-0.84
			c-1.88-0.56-3.6-1.52-5.18-2.87c-1.65-1.28-3.06-2.98-4.22-5.12c-1.16-2.14-1.93-4.89-2.31-8.27H174.97z M174.97,218.7
			c0,1.8,0.39,3.38,1.18,4.73c0.79,1.35,2.27,2.03,4.45,2.03c1.65,0,3.02-0.58,4.11-1.74c1.09-1.16,1.63-2.65,1.63-4.45v-22.17
			c0-2.1-0.53-3.81-1.58-5.12c-1.05-1.31-2.44-1.97-4.16-1.97c-1.95,0-3.38,0.71-4.28,2.14c-0.9,1.43-1.35,3.3-1.35,5.63V218.7z"/>
		<path class="st1" d="M241.48,179.19v57.06H230v-5.51h-0.22c-1.2,1.8-2.64,3.28-4.33,4.45s-3.85,1.74-6.47,1.74
			c-1.43,0-2.85-0.24-4.28-0.73c-1.43-0.49-2.7-1.29-3.83-2.42c-1.12-1.12-2.03-2.57-2.7-4.33c-0.68-1.76-1.01-3.92-1.01-6.47
			v-43.78h11.48v39.5c0,2.1,0.49,3.75,1.46,4.95c0.98,1.2,2.36,1.8,4.16,1.8c2.17,0,3.68-0.68,4.5-2.03
			c0.82-1.35,1.24-3.3,1.24-5.85v-38.38H241.48z"/>
		<path class="st1" d="M272.54,236.25v-5.85h-0.23c-1.5,2.1-3.02,3.71-4.56,4.84c-1.54,1.13-3.7,1.69-6.47,1.69
			c-1.35,0-2.72-0.21-4.11-0.62c-1.39-0.41-2.72-1.18-4-2.31c-1.28-1.05-2.31-2.57-3.1-4.56c-0.79-1.99-1.18-4.56-1.18-7.71
			c0-3.22,0.26-6.06,0.79-8.5c0.52-2.44,1.5-4.48,2.93-6.13c1.35-1.58,3.19-2.76,5.51-3.54c2.32-0.79,5.29-1.18,8.89-1.18
			c0.37,0,0.79,0,1.24,0s0.86,0.04,1.24,0.11c0.37,0.08,0.82,0.11,1.35,0.11c0.52,0,1.09,0.04,1.69,0.11v-5.96
			c0-1.95-0.41-3.56-1.24-4.84c-0.83-1.28-2.33-1.91-4.5-1.91c-1.5,0-2.87,0.49-4.11,1.46c-1.24,0.98-2.04,2.4-2.42,4.28h-11.14
			c0.3-5.1,2.03-9.23,5.18-12.38c1.5-1.5,3.3-2.68,5.4-3.55c2.1-0.86,4.46-1.29,7.09-1.29c2.4,0,4.65,0.38,6.75,1.13
			c2.1,0.75,3.94,1.88,5.51,3.38c1.5,1.5,2.7,3.38,3.6,5.63c0.9,2.25,1.35,4.88,1.35,7.88v39.73H272.54z M272.54,211.72
			c-1.28-0.23-2.33-0.34-3.15-0.34c-2.48,0-4.6,0.58-6.36,1.74c-1.76,1.16-2.64,3.28-2.64,6.36c0,2.18,0.52,3.94,1.58,5.29
			c1.05,1.35,2.51,2.03,4.39,2.03c1.95,0,3.47-0.64,4.56-1.91c1.09-1.28,1.63-3.07,1.63-5.4V211.72z"/>
	</g>
	<g>
		<path class="st1" d="M121.13,150.23c6.98-2.6,10.79-7.71,15.83-13.12c-2.67-0.23-6.57-1.13-9-2.23c-1.9-0.86-5.71-3.41-5.71-3.41
			l-16.04,16.12C106.21,147.59,114.15,152.83,121.13,150.23z"/>
		<path class="st1" d="M180.14,99.97c9.18-13.26-3.92-23.2-3.92-23.2l-46.69,47.21c0,0,2.03,0.31,2.87,0.31
			C152.15,124.28,168.28,115.8,180.14,99.97z"/>
		<path class="st1" d="M192.82,110.61c5.63-8.71,3.53-17.95-5.65-23.66c0.32,5.04-0.3,9.71-3.02,13.94
			c-7.05,10.95-17.13,18.02-28.91,22.88c-9.26,3.82-20.21,5.14-30.28,4.62c2.03,1.97,5.62,3.17,8.08,3.97
			C153.23,138.85,181.24,128.51,192.82,110.61z"/>
		<path class="st1" d="M193.98,83.95c2.6,0,4.99-0.84,6.96-2.24c0,0,10.15-8.44,13.56-11.2c-3.47-1.6-6.48-0.78-8.96-3.49
			c-0.62-0.68-2.21-2.54-2.21-2.54s0,0.01,0,0.01c-2.19-2.74-5.56-4.49-9.34-4.49C187.37,60,182,65.36,182,71.98
			C182,78.59,187.37,83.95,193.98,83.95z M192.6,67.02c1.37,0,2.48,1.11,2.48,2.48s-1.11,2.48-2.48,2.48s-2.48-1.11-2.48-2.48
			S191.24,67.02,192.6,67.02z"/>
		<path class="st1" d="M166.9,156.13l-7.87-18.79c-2.69,0.63-5.4,1.08-8.09,1.33l7.63,17.46H94.41v10.93h189.61v-10.93H166.9z"/>
	</g>
</g>
<g>
	<g>
		<path class="st0" d="M504.62,245.83v-73.49h-14.08v-11.45h40.32v11.45h-14.08v73.49H504.62z"/>
		<path class="st0" d="M535.39,245.83v-84.94h12.17v30.3h0.24c1.27-1.91,2.8-3.48,4.59-4.71c1.79-1.23,4.07-1.85,6.86-1.85
			c1.51,0,3.02,0.26,4.53,0.78c1.51,0.52,2.86,1.37,4.06,2.56c1.19,1.19,2.15,2.72,2.86,4.59c0.72,1.87,1.07,4.16,1.07,6.86v46.41
			h-12.17v-41.87c0-2.23-0.52-3.98-1.55-5.25c-1.04-1.27-2.51-1.91-4.41-1.91c-2.31,0-3.9,0.72-4.77,2.15
			c-0.88,1.43-1.31,3.5-1.31,6.2v40.68H535.39z"/>
		<path class="st0" d="M604.7,245.83v-6.2h-0.24c-1.59,2.23-3.2,3.94-4.83,5.13c-1.63,1.19-3.92,1.79-6.86,1.79
			c-1.43,0-2.88-0.22-4.35-0.66c-1.47-0.44-2.88-1.25-4.24-2.45c-1.35-1.11-2.45-2.72-3.28-4.83c-0.83-2.11-1.25-4.83-1.25-8.17
			c0-3.42,0.28-6.42,0.83-9.01c0.56-2.58,1.59-4.75,3.1-6.5c1.43-1.67,3.38-2.92,5.85-3.76c2.46-0.84,5.61-1.25,9.42-1.25
			c0.4,0,0.83,0,1.31,0s0.91,0.04,1.31,0.12c0.4,0.08,0.87,0.12,1.43,0.12c0.55,0,1.15,0.04,1.79,0.12v-6.32
			c0-2.07-0.44-3.78-1.31-5.13c-0.88-1.35-2.47-2.03-4.77-2.03c-1.59,0-3.04,0.52-4.35,1.55c-1.31,1.04-2.17,2.55-2.56,4.53h-11.81
			c0.32-5.41,2.15-9.78,5.49-13.12c1.59-1.59,3.5-2.84,5.73-3.76c2.23-0.91,4.73-1.37,7.52-1.37c2.55,0,4.93,0.4,7.16,1.19
			c2.23,0.8,4.17,1.99,5.85,3.58c1.59,1.59,2.86,3.58,3.82,5.96c0.95,2.39,1.43,5.17,1.43,8.35v42.11H604.7z M604.7,219.82
			c-1.35-0.24-2.47-0.36-3.34-0.36c-2.62,0-4.87,0.62-6.74,1.85c-1.87,1.23-2.8,3.48-2.8,6.74c0,2.31,0.56,4.18,1.67,5.61
			c1.11,1.43,2.66,2.15,4.65,2.15c2.07,0,3.68-0.68,4.83-2.03c1.15-1.35,1.73-3.26,1.73-5.73V219.82z"/>
		<path class="st0" d="M637.87,252.87c0.08,1.43,0.66,2.78,1.73,4.05c1.07,1.27,2.64,1.91,4.71,1.91c1.99,0,3.42-0.62,4.29-1.85
			c0.87-1.23,1.31-2.8,1.31-4.71v-11.93h-0.24c-1.35,1.99-2.96,3.52-4.83,4.59c-1.87,1.08-4.04,1.61-6.5,1.61
			c-5.09,0-8.63-1.91-10.62-5.73c-0.72-1.35-1.23-3.02-1.55-5.01c-0.32-1.99-0.48-4.65-0.48-7.99v-23.02c0-4.37,0.12-7.59,0.36-9.66
			c0.48-3.98,2.35-6.96,5.61-8.95c1.51-1.03,3.78-1.55,6.8-1.55c1.51,0,2.8,0.16,3.88,0.48s2.05,0.76,2.92,1.31
			c0.87,0.56,1.67,1.21,2.39,1.97c0.72,0.76,1.47,1.57,2.27,2.45v-5.49h12.17v67.88c0,2.07-0.34,4.15-1.01,6.26
			c-0.68,2.11-1.77,4-3.28,5.67c-1.51,1.75-3.42,3.16-5.73,4.23c-2.31,1.07-5.05,1.61-8.23,1.61c-1.83,0-3.74-0.3-5.73-0.9
			c-1.99-0.6-3.82-1.61-5.49-3.04c-1.75-1.35-3.24-3.16-4.47-5.43c-1.23-2.27-2.05-5.19-2.45-8.77H637.87z M637.87,227.22
			c0,1.91,0.42,3.58,1.25,5.01c0.84,1.43,2.41,2.15,4.71,2.15c1.75,0,3.2-0.62,4.35-1.85c1.15-1.23,1.73-2.8,1.73-4.71v-23.5
			c0-2.23-0.56-4.04-1.67-5.43c-1.12-1.39-2.58-2.09-4.41-2.09c-2.07,0-3.58,0.76-4.53,2.27c-0.96,1.51-1.43,3.5-1.43,5.97V227.22z"
			/>
		<path class="st0" d="M708.37,185.35v60.48H696.2v-5.85h-0.24c-1.27,1.91-2.8,3.48-4.59,4.71c-1.79,1.23-4.08,1.85-6.86,1.85
			c-1.51,0-3.02-0.26-4.53-0.78c-1.51-0.52-2.86-1.37-4.06-2.56c-1.19-1.19-2.15-2.72-2.86-4.59c-0.72-1.87-1.07-4.15-1.07-6.86
			v-46.41h12.17v41.87c0,2.23,0.52,3.98,1.55,5.25c1.03,1.27,2.51,1.91,4.41,1.91c2.31,0,3.9-0.72,4.77-2.15
			c0.87-1.43,1.31-3.5,1.31-6.2v-40.68H708.37z"/>
		<path class="st0" d="M741.29,245.83v-6.2h-0.24c-1.59,2.23-3.2,3.94-4.83,5.13c-1.63,1.19-3.92,1.79-6.86,1.79
			c-1.43,0-2.88-0.22-4.35-0.66c-1.47-0.44-2.88-1.25-4.24-2.45c-1.35-1.11-2.45-2.72-3.28-4.83c-0.83-2.11-1.25-4.83-1.25-8.17
			c0-3.42,0.28-6.42,0.83-9.01c0.56-2.58,1.59-4.75,3.1-6.5c1.43-1.67,3.38-2.92,5.85-3.76c2.46-0.84,5.61-1.25,9.42-1.25
			c0.4,0,0.83,0,1.31,0c0.48,0,0.91,0.04,1.31,0.12c0.4,0.08,0.87,0.12,1.43,0.12c0.55,0,1.15,0.04,1.79,0.12v-6.32
			c0-2.07-0.44-3.78-1.31-5.13c-0.88-1.35-2.47-2.03-4.77-2.03c-1.59,0-3.04,0.52-4.35,1.55c-1.31,1.04-2.17,2.55-2.56,4.53h-11.81
			c0.32-5.41,2.15-9.78,5.49-13.12c1.59-1.59,3.5-2.84,5.73-3.76c2.23-0.91,4.73-1.37,7.52-1.37c2.54,0,4.93,0.4,7.16,1.19
			c2.23,0.8,4.17,1.99,5.85,3.58c1.59,1.59,2.86,3.58,3.82,5.96c0.95,2.39,1.43,5.17,1.43,8.35v42.11H741.29z M741.29,219.82
			c-1.35-0.24-2.47-0.36-3.34-0.36c-2.62,0-4.87,0.62-6.74,1.85c-1.87,1.23-2.8,3.48-2.8,6.74c0,2.31,0.56,4.18,1.67,5.61
			c1.11,1.43,2.66,2.15,4.65,2.15c2.07,0,3.68-0.68,4.83-2.03c1.15-1.35,1.73-3.26,1.73-5.73V219.82z"/>
	</g>
	<g>
		<path class="st0" d="M580.79,154.64c7.4-2.76,11.43-8.17,16.78-13.91c-2.83-0.25-6.96-1.19-9.54-2.37
			c-2.01-0.91-6.05-3.61-6.05-3.61l-17.01,17.09C564.98,151.85,573.4,157.4,580.79,154.64z"/>
		<path class="st0" d="M643.35,101.37c9.73-14.06-4.15-24.6-4.15-24.6l-49.49,50.04c0,0,2.15,0.33,3.04,0.33
			C613.67,127.13,630.77,118.15,643.35,101.37z"/>
		<path class="st0" d="M656.79,112.64c5.97-9.23,3.74-19.03-5.98-25.08c0.34,5.35-0.32,10.29-3.2,14.77
			c-7.47,11.61-18.15,19.11-30.64,24.25c-9.82,4.05-21.42,5.45-32.1,4.89c2.15,2.09,5.96,3.36,8.57,4.21
			C614.82,142.59,644.52,131.62,656.79,112.64z"/>
		<path class="st0" d="M658.02,84.39c2.75,0,5.29-0.89,7.37-2.37c0,0,10.76-8.95,14.37-11.87c-3.67-1.7-6.87-0.82-9.49-3.7
			c-0.65-0.72-2.35-2.69-2.35-2.69s0,0.01,0,0.01c-2.33-2.9-5.89-4.76-9.9-4.76c-7.01,0-12.7,5.68-12.7,12.7
			C645.32,78.71,651.01,84.39,658.02,84.39z M656.56,66.45c1.45,0,2.62,1.18,2.62,2.62c0,1.45-1.18,2.62-2.62,2.62
			s-2.62-1.18-2.62-2.62C653.94,67.62,655.11,66.45,656.56,66.45z"/>
		<path class="st0" d="M629.31,160.9l-8.34-19.92c-2.85,0.67-5.72,1.15-8.58,1.41l8.08,18.51h-68.01v11.59h200.98V160.9H629.31z"/>
	</g>
</g>
</svg>
